<?xml version="1.0" encoding="utf-8"?>
<!DOCTYPE svg PUBLIC "-//W3C//DTD SVG 1.1//EN" "http://www.w3.org/Graphics/SVG/1.1/DTD/svg11.dtd">
  <svg version="1.1" xmlns="http://www.w3.org/2000/svg" xmlns:xlink="http://www.w3.org/1999/xlink" width="860" height="400">
	<g id="slide">
		<g>
			<rect x="299" y="36.73" fill="#FFFFFF" width="169.27" height="106.17"/>
			<path fill="#1D1D1B" d="M467.77,37.23v105.17H299.5V37.23H467.77 M468.77,36.23h-1H299.5h-1v1v105.17v1h1h168.27h1v-1V37.23
				V36.23L468.77,36.23z"/>
		</g>
		<rect x="331.33" y="47.46" fill="#FFD200" width="136.44" height="9.09"/>
		<rect x="299.5" y="47.46" fill="#1E64C8" width="16.2" height="9.09"/>
		<g>
			<rect x="318.73" y="55.72" fill="#1E64C8" width="10.35" height="0.43"/>
			<rect x="318.73" y="50.66" fill="#1E64C8" width="10.35" height="0.39"/>
			<rect x="316.82" y="57.22" fill="#1E64C8" width="14.22" height="0.7"/>
			<rect x="321.13" y="58.95" fill="#1E64C8" width="5.59" height="0.66"/>
			<polygon fill="#1E64C8" points="323.93,48.47 319.27,50.29 328.56,50.29 			"/>
			<rect x="319.94" y="51.53" fill="#1E64C8" width="0.64" height="3.81"/>
			<rect x="321.4" y="51.53" fill="#1E64C8" width="0.64" height="3.81"/>
			<rect x="322.87" y="51.53" fill="#1E64C8" width="0.64" height="3.81"/>
			<rect x="324.33" y="51.53" fill="#1E64C8" width="0.64" height="3.81"/>
			<rect x="325.79" y="51.53" fill="#1E64C8" width="0.64" height="3.81"/>
			<rect x="327.25" y="51.53" fill="#1E64C8" width="0.64" height="3.81"/>
		</g>
    <rect x="308.15" y="85.04" fill="#C6C6C5" width="23.72" height="7.01"/>
    <rect x="337.89" y="85.04" fill="#C6C6C5" width="49.41" height="7.01"/>
    <rect x="308.46" y="98.23" fill="#575756" width="16.41" height="7.01"/>
    <rect x="333.08" y="98.23" fill="#575756" width="16.41" height="7.01"/>
    <rect x="358.41" y="98.23" fill="#575756" width="22.59" height="7.01"/>
    <rect x="308.46" y="67.8" fill="#575756" width="18.56" height="7.92"/>
    <rect x="336.29" y="67.8" fill="#575756" width="22.12" height="7.92"/>
    <rect x="364.93" y="67.8" fill="#575756" width="96.75" height="7.92"/>
    <rect x="308.15" y="110.57" fill="#C6C6C5" width="23.72" height="7.01"/>
    <rect x="337.89" y="110.57" fill="#C6C6C5" width="49.41" height="7.01"/>
    <rect x="350.68" y="123.76" fill="#C6C6C5" width="39.79" height="7.01"/>
    <rect x="308.46" y="123.76" fill="#C6C6C5" width="32.83" height="7.01"/>
    <g>
      <rect x="397.63" y="88.73" width="62.13" height="33.94"/>
      <path fill="#BD1622" d="M438.42,107.59c0,2.58-1.89,4.66-4.21,4.66h-11.01c-2.33,0-4.21-2.09-4.21-4.66v-4.24
        c0-2.58,1.89-4.66,4.21-4.66h11.01c2.33,0,4.21,2.09,4.21,4.66V107.59z"/>
      <polygon fill="#FFFFFF" points="426.78,102.72 431.02,105.17 426.78,107.62 		"/>
    </g>
	</g>

	<text transform="matrix(1 0 0 1 316.291 22.334)" style="font-family: Arial; font-size: 24px; font-weight: bold">eigen versie</text>
	<text transform="matrix(1 0 0 1 160.0371 29.9248)" fill="#6F6F6E" font-family="'Arial'" font-size="22">opmerking</text>
	<text transform="matrix(1 0 0 1 150.0034 56.1992)" fill="#6F6F6E" font-family="'Arial'" font-size="22">aanpassing</text>
	<text transform="matrix(1 0 0 1 154.0029 81.8008)" fill="#6F6F6E" font-family="'Arial'" font-size="22">toevoeging</text>
  <line fill="none" stroke="#6F6F6E" stroke-width="2" stroke-linecap="round" stroke-miterlimit="10" x1="293.5" y1="51" x2="267" y2="26"/>
  <line fill="none" stroke="#6F6F6E" stroke-width="2" stroke-linecap="round" stroke-miterlimit="10" x1="292.33" y1="51" x2="267" y2="51"/>
  <line fill="none" stroke="#6F6F6E" stroke-width="2" stroke-linecap="round" stroke-miterlimit="10" x1="293.5" y1="51" x2="267" y2="76"/>
</svg>
