<?xml version="1.0" encoding="UTF-8" standalone="no"?>
<svg
   xmlns:dc="http://purl.org/dc/elements/1.1/"
   xmlns:cc="http://creativecommons.org/ns#"
   xmlns:rdf="http://www.w3.org/1999/02/22-rdf-syntax-ns#"
   xmlns:svg="http://www.w3.org/2000/svg"
   xmlns="http://www.w3.org/2000/svg"
   id="svg2"
   height="400"
   width="860"
   version="1.1">
  <metadata
     id="metadata89">
    <rdf:RDF>
      <cc:Work
         rdf:about="">
        <dc:format>image/svg+xml</dc:format>
        <dc:type
           rdf:resource="http://purl.org/dc/dcmitype/StillImage" />
        <dc:title></dc:title>
      </cc:Work>
    </rdf:RDF>
  </metadata>
  <defs
     id="defs87" />
  <g
     id="slide">
    <g
       id="g5">
      <rect
         id="rect7"
         height="106.17"
         width="169.27"
         fill="#FFFFFF"
         y="36.73"
         x="299" />
      <path
         id="path9"
         d="M467.77,37.23v105.17H299.5V37.23H467.77 M468.77,36.23h-1H299.5h-1v1v105.17v1h1h168.27h1v-1V37.23     V36.23L468.77,36.23z"
         fill="#1D1D1B" />
    </g>
    <rect
       id="rect11"
       height="9.09"
       width="136.44"
       fill="#FFD200"
       y="47.46"
       x="331.33" />
    <rect
       id="rect13"
       height="9.09"
       width="16.2"
       fill="#1E64C8"
       y="47.46"
       x="299.5" />
    <g
       id="g15">
      <rect
         id="rect17"
         height="0.43"
         width="10.35"
         fill="#1E64C8"
         y="55.72"
         x="318.73" />
      <rect
         id="rect19"
         height="0.39"
         width="10.35"
         fill="#1E64C8"
         y="50.66"
         x="318.73" />
      <rect
         id="rect21"
         height="0.7"
         width="14.22"
         fill="#1E64C8"
         y="57.22"
         x="316.82" />
      <rect
         id="rect23"
         height="0.66"
         width="5.59"
         fill="#1E64C8"
         y="58.95"
         x="321.13" />
      <polygon
         id="polygon25"
         points="323.93,48.47 319.27,50.29 328.56,50.29    "
         fill="#1E64C8" />
      <rect
         id="rect27"
         height="3.81"
         width="0.64"
         fill="#1E64C8"
         y="51.53"
         x="319.94" />
      <rect
         id="rect29"
         height="3.81"
         width="0.64"
         fill="#1E64C8"
         y="51.53"
         x="321.4" />
      <rect
         id="rect31"
         height="3.81"
         width="0.64"
         fill="#1E64C8"
         y="51.53"
         x="322.87" />
      <rect
         id="rect33"
         height="3.81"
         width="0.64"
         fill="#1E64C8"
         y="51.53"
         x="324.33" />
      <rect
         id="rect35"
         height="3.81"
         width="0.64"
         fill="#1E64C8"
         y="51.53"
         x="325.79" />
      <rect
         id="rect37"
         height="3.81"
         width="0.64"
         fill="#1E64C8"
         y="51.53"
         x="327.25" />
    </g>
    <rect
       id="rect39"
       height="7.01"
       width="23.72"
       fill="#C6C6C5"
       y="85.04"
       x="308.15" />
    <rect
       id="rect41"
       height="7.01"
       width="49.41"
       fill="#C6C6C5"
       y="85.04"
       x="337.89" />
    <rect
       id="rect43"
       height="7.01"
       width="16.41"
       fill="#575756"
       y="98.23"
       x="308.46" />
    <rect
       id="rect45"
       height="7.01"
       width="16.41"
       fill="#575756"
       y="98.23"
       x="333.08" />
    <rect
       id="rect47"
       height="7.01"
       width="22.59"
       fill="#575756"
       y="98.23"
       x="358.41" />
    <rect
       id="rect49"
       height="7.92"
       width="18.56"
       fill="#575756"
       y="67.8"
       x="308.46" />
    <rect
       id="rect51"
       height="7.92"
       width="22.12"
       fill="#575756"
       y="67.8"
       x="336.29" />
    <rect
       id="rect53"
       height="7.92"
       width="96.75"
       fill="#575756"
       y="67.8"
       x="364.93" />
    <rect
       id="rect55"
       height="7.01"
       width="23.72"
       fill="#C6C6C5"
       y="110.57"
       x="308.15" />
    <rect
       id="rect57"
       height="7.01"
       width="49.41"
       fill="#C6C6C5"
       y="110.57"
       x="337.89" />
    <rect
       id="rect59"
       height="7.01"
       width="39.79"
       fill="#C6C6C5"
       y="123.76"
       x="350.68" />
    <rect
       id="rect61"
       height="7.01"
       width="32.83"
       fill="#C6C6C5"
       y="123.76"
       x="308.46" />
    <g
       id="g63">
      <rect
         id="rect65"
         height="33.94"
         width="62.13"
         y="88.73"
         x="397.63" />
      <path
         id="path67"
         d="M438.42,107.59c0,2.58-1.89,4.66-4.21,4.66h-11.01c-2.33,0-4.21-2.09-4.21-4.66v-4.24         c0-2.58,1.89-4.66,4.21-4.66h11.01c2.33,0,4.21,2.09,4.21,4.66V107.59z"
         fill="#BD1622" />
      <polygon
         id="polygon69"
         points="426.78,102.72 431.02,105.17 426.78,107.62   "
         fill="#FFFFFF" />
    </g>
  </g>
  <text
     y="22.334"
     x="282.29099"
     id="text71"
     style="font-weight:bold;font-size:24px;font-family:Arial">personal version</text>
  <text
     style="font-size:22px;font-family:Arial;fill:#6f6f6e"
     id="text73"
     font-size="22"
     transform="translate(160.0371,29.9248)">remark</text>
  <text
     y="56.1992"
     x="140.0034"
     style="font-size:22px;font-family:Arial;fill:#6f6f6e"
     id="text75"
     font-size="22">modification</text>
  <text
     style="font-size:22px;font-family:Arial;fill:#6f6f6e"
     id="text77"
     font-size="22"
     transform="translate(154.0029,81.8008)">addition</text>
  <line
     id="line79"
     y2="26"
     x2="267"
     y1="51"
     x1="293.5"
     stroke-miterlimit="10"
     stroke-linecap="round"
     stroke-width="2"
     stroke="#6F6F6E"
     fill="none" />
  <line
     id="line81"
     y2="51"
     x2="267"
     y1="51"
     x1="292.33"
     stroke-miterlimit="10"
     stroke-linecap="round"
     stroke-width="2"
     stroke="#6F6F6E"
     fill="none" />
  <line
     id="line83"
     y2="76"
     x2="267"
     y1="51"
     x1="293.5"
     stroke-miterlimit="10"
     stroke-linecap="round"
     stroke-width="2"
     stroke="#6F6F6E"
     fill="none" />
</svg>
