<?xml version="1.0" encoding="utf-8"?>
<!DOCTYPE svg PUBLIC "-//W3C//DTD SVG 1.1//EN" "http://www.w3.org/Graphics/SVG/1.1/DTD/svg11.dtd">
<svg version="1.1" xmlns="http://www.w3.org/2000/svg" xmlns:xlink="http://www.w3.org/1999/xlink" width="860" height="400">
	<text transform="matrix(1 0 0 1 17.5576 391.666)" style="font-family: Arial; font-size: 24px; font-style: italic;">docent</text>
  <circle fill="#E59F7E" fill-opacity="0.36" stroke="#231F20" stroke-width="2" stroke-miterlimit="10" cx="56" cy="304.73" r="51.33"/>
	<path fill="#7E4E24" stroke="#231F20" stroke-width="2" stroke-linejoin="round" stroke-miterlimit="10" d="M107.33,304.73
		c0-1.02-0.04-2.03-0.1-3.03v-0.11l-0.01,0.02c-1.61-26.9-23.93-48.21-51.23-48.21S6.38,274.71,4.77,301.61l-0.01-0.02v0.11
		c-0.06,1-0.1,2.01-0.1,3.03c0,0.91,0.03,1.81,0.07,2.7l-0.07,20.67c0,0,2.1,14.51,15.05,12.75l-3.02-7.93
		c-2.69-23.46,13.05-26.24,32.97-31.03c11.84-2.85,19.15-9.15,23.34-14.24c5.62,6.1,15.57,15.7,23.64,17.07
		c0.31,0.57,0.63,1.17,0.95,1.78c1.88,3.57,1.53,11.26,1.25,14.62c-0.82,9.9-6.57,19.71-6.57,19.71c-0.69,0.8-1.2,1.33-1.4,1.53
		c0.53-0.49,1.05-1,1.56-1.52c12.82,1.61,14.9-12.77,14.9-12.77l-0.07-20.58C107.31,306.59,107.33,305.66,107.33,304.73z"/>
</svg>
