<?xml version="1.0" encoding="utf-8"?>
<!DOCTYPE svg PUBLIC "-//W3C//DTD SVG 1.1//EN" "http://www.w3.org/Graphics/SVG/1.1/DTD/svg11.dtd">
<svg version="1.1" xmlns="http://www.w3.org/2000/svg" xmlns:xlink="http://www.w3.org/1999/xlink" width="860" height="400">
	<g id="slide">
		<g>
			<rect x="646.88" y="146.29" fill="#FFFFFF" width="169.27" height="106.17"/>
			<path fill="#1D1D1B" d="M815.64,146.79v105.17H647.38V146.79H815.64 M816.64,145.79h-1H647.38h-1v1v105.17v1h1h168.27h1v-1
				V146.79V145.79L816.64,145.79z"/>
		</g>
		<rect x="679.2" y="157.02" fill="#FFD200" width="136.44" height="9.09"/>
		<rect x="647.38" y="157.02" fill="#1E64C8" width="16.2" height="9.09"/>
		<g>
			<rect x="666.61" y="165.28" fill="#1E64C8" width="10.35" height="0.43"/>
			<rect x="666.61" y="160.22" fill="#1E64C8" width="10.35" height="0.39"/>
			<rect x="664.69" y="166.78" fill="#1E64C8" width="14.22" height="0.7"/>
			<rect x="669.01" y="168.51" fill="#1E64C8" width="5.59" height="0.66"/>
			<polygon fill="#1E64C8" points="671.8,158.03 667.15,159.85 676.43,159.85 			"/>
			<rect x="667.82" y="161.09" fill="#1E64C8" width="0.64" height="3.81"/>
			<rect x="669.28" y="161.09" fill="#1E64C8" width="0.64" height="3.81"/>
			<rect x="670.74" y="161.09" fill="#1E64C8" width="0.64" height="3.81"/>
			<rect x="672.2" y="161.09" fill="#1E64C8" width="0.64" height="3.81"/>
			<rect x="673.66" y="161.09" fill="#1E64C8" width="0.64" height="3.81"/>
			<rect x="675.12" y="161.09" fill="#1E64C8" width="0.64" height="3.81"/>
		</g>
    <rect x="697.28" y="205.26" fill="#C6C6C5" width="39.79" height="7.01"/>
    <rect x="655.06" y="205.26" fill="#C6C6C5" width="32.83" height="7.01"/>
    <rect x="654.75" y="192.61" fill="#C6C6C5" width="23.72" height="7.01"/>
    <rect x="684.48" y="192.61" fill="#C6C6C5" width="49.41" height="7.01"/>
    <rect x="655.06" y="175.37" fill="#C6C6C5" width="18.56" height="7.92"/>
    <rect x="682.89" y="175.37" fill="#C6C6C5" width="22.12" height="7.92"/>
    <rect x="711.53" y="175.37" fill="#C6C6C5" width="96.75" height="7.92"/>
    <rect x="654.75" y="218.14" fill="#C6C6C5" width="23.72" height="7.01"/>
    <rect x="684.48" y="218.14" fill="#C6C6C5" width="49.41" height="7.01"/>
    <rect x="697.28" y="231.33" fill="#C6C6C5" width="39.79" height="7.01"/>
    <rect x="655.06" y="231.33" fill="#C6C6C5" width="32.83" height="7.01"/>
    <g>
      <rect x="744.23" y="196.3" width="62.13" height="33.94"/>
      <path fill="#BD1622" d="M785.01,215.16c0,2.58-1.89,4.66-4.21,4.66h-11.01c-2.33,0-4.21-2.09-4.21-4.66v-4.24
        c0-2.58,1.89-4.66,4.21-4.66h11.01c2.33,0,4.21,2.09,4.21,4.66V215.16z"/>
      <polygon fill="#FFFFFF" points="773.38,210.29 777.62,212.74 773.38,215.19 		"/>
    </g>
	</g>
	<g id="highlights">
		<line fill="none" stroke="#BD1622" stroke-width="5" stroke-miterlimit="10" x1="651.17" y1="118.71" x2="663.57" y2="135.81"/>
		<line fill="none" stroke="#BD1622" stroke-width="5" stroke-miterlimit="10" x1="689.12" y1="110.47" x2="693.95" y2="129.36"/>
		<line fill="none" stroke="#BD1622" stroke-width="5" stroke-miterlimit="10" x1="728.15" y1="108.41" x2="726.15" y2="126.75"/>
		<line fill="none" stroke="#BD1622" stroke-width="5" stroke-miterlimit="10" x1="764.1" y1="110.29" x2="755.71" y2="127.13"/>
		<line fill="none" stroke="#BD1622" stroke-width="5" stroke-miterlimit="10" x1="800.57" y1="115.33" x2="790.29" y2="130.02"/>
		<line fill="none" stroke="#BD1622" stroke-width="5" stroke-miterlimit="10" x1="638.86" y1="141.93" x2="623.31" y2="133.73"/>
		<line fill="none" stroke="#BD1622" stroke-width="5" stroke-miterlimit="10" x1="632.92" y1="164.84" x2="617" y2="160.9"/>
		<line fill="none" stroke="#BD1622" stroke-width="5" stroke-miterlimit="10" x1="633.15" y1="185.35" x2="616.77" y2="184.6"/>
		<line fill="none" stroke="#BD1622" stroke-width="5" stroke-miterlimit="10" x1="632.92" y1="218.14" x2="617" y2="225.15"/>
		<line fill="none" stroke="#BD1622" stroke-width="5" stroke-miterlimit="10" x1="640" y1="241.5" x2="624.96" y2="251.18"/>
		<line fill="none" stroke="#BD1622" stroke-width="5" stroke-miterlimit="10" x1="798" y1="265" x2="803.14" y2="277.5"/>
		<line fill="none" stroke="#BD1622" stroke-width="5" stroke-miterlimit="10" x1="820.5" y1="256" x2="830" y2="267.61"/>
		<line fill="none" stroke="#BD1622" stroke-width="5" stroke-miterlimit="10" x1="825.25" y1="234.83" x2="838.5" y2="241.5"/>
		<line fill="none" stroke="#BD1622" stroke-width="5" stroke-miterlimit="10" x1="823" y1="142.39" x2="834" y2="132.94"/>
		<line fill="none" stroke="#BD1622" stroke-width="5" stroke-miterlimit="10" x1="826.93" y1="164.98" x2="840.82" y2="160.82"/>
	</g>
</svg>
