<?xml version="1.0" encoding="utf-8"?>
<!DOCTYPE svg PUBLIC "-//W3C//DTD SVG 1.1//EN" "http://www.w3.org/Graphics/SVG/1.1/DTD/svg11.dtd">
<svg version="1.1" xmlns="http://www.w3.org/2000/svg" xmlns:xlink="http://www.w3.org/1999/xlink" width="860" height="400">
	<g id="slide">
		<g>
			<rect x="139.25" y="250.68" fill="#FFFFFF" width="169.27" height="106.17"/>
			<path fill="#1D1D1B" d="M308.01,251.18v105.17H139.75V251.18H308.01 M309.01,250.18h-1H139.75h-1v1v105.17v1h1h168.27h1v-1
				V251.18V250.18L309.01,250.18z"/>
		</g>
		<rect x="171.57" y="261.41" fill="#FFD200" width="136.44" height="9.09"/>
		<rect x="139.75" y="261.41" fill="#1E64C8" width="16.2" height="9.09"/>
		<g>
			<rect x="158.98" y="269.67" fill="#1E64C8" width="10.35" height="0.43"/>
			<rect x="158.98" y="264.61" fill="#1E64C8" width="10.35" height="0.39"/>
			<rect x="157.06" y="271.17" fill="#1E64C8" width="14.22" height="0.7"/>
			<rect x="161.38" y="272.9" fill="#1E64C8" width="5.59" height="0.66"/>
			<polygon fill="#1E64C8" points="164.17,262.42 159.52,264.24 168.8,264.24 			"/>
			<rect x="160.19" y="265.48" fill="#1E64C8" width="0.64" height="3.81"/>
			<rect x="161.65" y="265.48" fill="#1E64C8" width="0.64" height="3.81"/>
			<rect x="163.11" y="265.48" fill="#1E64C8" width="0.64" height="3.81"/>
			<rect x="164.57" y="265.48" fill="#1E64C8" width="0.64" height="3.81"/>
			<rect x="166.03" y="265.48" fill="#1E64C8" width="0.64" height="3.81"/>
			<rect x="167.49" y="265.48" fill="#1E64C8" width="0.64" height="3.81"/>
		</g>
    <rect x="148.39" y="281.1" fill="#C6C6C5" width="150.98" height="9.9"/>
    <rect x="148.39" y="299.14" fill="#C6C6C5" width="23.72" height="7.01"/>
    <rect x="178.13" y="299.14" fill="#C6C6C5" width="49.42" height="7.01"/>
    <rect x="190.92" y="312.33" fill="#C6C6C5" width="39.79" height="7.01"/>
    <rect x="148.7" y="312.33" fill="#C6C6C5" width="32.82" height="7.01"/>
    <rect x="148.39" y="324.67" fill="#C6C6C5" width="23.72" height="7.01"/>
    <rect x="178.13" y="324.67" fill="#C6C6C5" width="49.42" height="7.01"/>
    <rect x="190.92" y="337.86" fill="#C6C6C5" width="39.79" height="7.01"/>
    <rect x="148.7" y="337.86" fill="#C6C6C5" width="32.82" height="7.01"/>
	</g>
	<text transform="matrix(1 0 0 1 137 389)" style="font-family: Arial; font-size: 24px; font-weight: bold">publieke versie</text>
</svg>
