<?xml version="1.0" encoding="utf-8"?>
<!DOCTYPE svg PUBLIC "-//W3C//DTD SVG 1.1//EN" "http://www.w3.org/Graphics/SVG/1.1/DTD/svg11.dtd">
<svg version="1.1" xmlns="http://www.w3.org/2000/svg" xmlns:xlink="http://www.w3.org/1999/xlink" width="860" height="400">
	<text transform="matrix(1 0 0 1 14.5576 145.3936)" style="font-family: Arial; font-size: 24px; font-style: italic;">student</text>
  <circle fill="#E59F7E" fill-opacity="0.36" stroke="#231F20" stroke-width="2" stroke-miterlimit="10" cx="56" cy="61.23" r="51.33"/>
	<path fill="#B17F49" stroke="#231F20" stroke-width="2" stroke-miterlimit="10" d="M12.54,88.54c-4.98-7.91-7.87-17.27-7.87-27.3
		C4.67,32.88,27.65,9.9,56,9.9c28.35,0,51.33,22.98,51.33,51.33c0,9.15-2.41,17.73-6.6,25.17c0-0.05-0.1-36.39-7.76-42.05
		c0,0-16.27,28-36.97,26.33c0,0,9.3-14,5.3-22.33c0,0-15.33,24.33-28.33,24c0,0,4-15.67,0-20L12.54,88.54z"/>
</svg>
