<?xml version="1.0" encoding="UTF-8" standalone="no"?>
<svg
   xmlns:dc="http://purl.org/dc/elements/1.1/"
   xmlns:cc="http://creativecommons.org/ns#"
   xmlns:rdf="http://www.w3.org/1999/02/22-rdf-syntax-ns#"
   xmlns:svg="http://www.w3.org/2000/svg"
   xmlns="http://www.w3.org/2000/svg"
   id="svg2"
   height="400"
   width="860"
   version="1.1">
  <metadata
     id="metadata77">
    <rdf:RDF>
      <cc:Work
         rdf:about="">
        <dc:format>image/svg+xml</dc:format>
        <dc:type
           rdf:resource="http://purl.org/dc/dcmitype/StillImage" />
        <dc:title></dc:title>
      </cc:Work>
    </rdf:RDF>
  </metadata>
  <defs
     id="defs75" />
  <g
     id="slide">
    <g
       id="g5">
      <rect
         id="rect7"
         height="106.16"
         width="169.27"
         fill="#FFFFFF"
         y="248.62"
         x="414.46" />
      <path
         id="path9"
         d="M583.23,249.12v105.16H414.96V249.12H583.23 M584.23,248.12h-1H414.96h-1v1v105.16v1h1h168.27h1v-1     V249.12V248.12L584.23,248.12z"
         fill="#1D1D1B" />
    </g>
    <rect
       id="rect11"
       height="9.09"
       width="136.44"
       fill="#FFD200"
       y="259.35"
       x="446.79" />
    <rect
       id="rect13"
       height="9.09"
       width="16.2"
       fill="#1E64C8"
       y="259.35"
       x="414.96" />
    <g
       id="g15">
      <rect
         id="rect17"
         height="0.44"
         width="10.35"
         fill="#1E64C8"
         y="267.61"
         x="434.2" />
      <rect
         id="rect19"
         height="0.39"
         width="10.35"
         fill="#1E64C8"
         y="262.55"
         x="434.2" />
      <rect
         id="rect21"
         height="0.7"
         width="14.22"
         fill="#1E64C8"
         y="269.11"
         x="432.28" />
      <rect
         id="rect23"
         height="0.66"
         width="5.59"
         fill="#1E64C8"
         y="270.85"
         x="436.59" />
      <polygon
         id="polygon25"
         points="439.39,260.36 434.73,262.19 444.02,262.19    "
         fill="#1E64C8" />
      <rect
         id="rect27"
         height="3.81"
         width="0.64"
         fill="#1E64C8"
         y="263.42"
         x="435.4" />
      <rect
         id="rect29"
         height="3.81"
         width="0.64"
         fill="#1E64C8"
         y="263.42"
         x="436.87" />
      <rect
         id="rect31"
         height="3.81"
         width="0.64"
         fill="#1E64C8"
         y="263.42"
         x="438.33" />
      <rect
         id="rect33"
         height="3.81"
         width="0.64"
         fill="#1E64C8"
         y="263.42"
         x="439.79" />
      <rect
         id="rect35"
         height="3.81"
         width="0.64"
         fill="#1E64C8"
         y="263.42"
         x="441.25" />
      <rect
         id="rect37"
         height="3.81"
         width="0.64"
         fill="#1E64C8"
         y="263.42"
         x="442.71" />
    </g>
    <rect
       id="rect39"
       height="7.01"
       width="23.72"
       fill="#ECECEC"
       y="296.93"
       x="423.61" />
    <rect
       id="rect41"
       height="7.01"
       width="49.41"
       fill="#ECECEC"
       y="296.93"
       x="453.35" />
    <rect
       id="rect43"
       height="7.01"
       width="16.41"
       fill="#E5007E"
       y="310.12"
       x="423.92" />
    <rect
       id="rect45"
       height="7.01"
       width="16.41"
       fill="#E5007E"
       y="310.12"
       x="448.54" />
    <rect
       id="rect47"
       height="7.01"
       width="22.59"
       fill="#E5007E"
       y="310.12"
       x="473.87" />
    <rect
       id="rect49"
       height="7.92"
       width="18.56"
       fill="#E5007E"
       y="279.69"
       x="423.92" />
    <rect
       id="rect51"
       height="7.92"
       width="22.12"
       fill="#E5007E"
       y="279.69"
       x="451.75" />
    <rect
       id="rect53"
       height="7.92"
       width="96.75"
       fill="#E5007E"
       y="279.69"
       x="480.39" />
    <rect
       id="rect55"
       height="7.01"
       width="23.72"
       fill="#ECECEC"
       y="322.46"
       x="423.61" />
    <rect
       id="rect57"
       height="7.01"
       width="49.41"
       fill="#ECECEC"
       y="322.46"
       x="453.35" />
    <rect
       id="rect59"
       height="7.01"
       width="39.79"
       fill="#ECECEC"
       y="335.65"
       x="466.14" />
    <rect
       id="rect61"
       height="7.01"
       width="32.83"
       fill="#ECECEC"
       y="335.65"
       x="423.92" />
    <g
       id="g63">
      <rect
         id="rect65"
         height="33.94"
         width="62.13"
         stroke-miterlimit="10"
         stroke-width="4"
         stroke="#E5007E"
         y="300.62"
         x="513.09" />
      <path
         id="path67"
         d="M553.88,319.48c0,2.58-1.89,4.66-4.21,4.66h-11.01c-2.33,0-4.21-2.09-4.21-4.66v-4.24         c0-2.58,1.89-4.66,4.21-4.66h11.01c2.33,0,4.21,2.09,4.21,4.66V319.48z"
         fill="#BD1622" />
      <polygon
         id="polygon69"
         points="542.24,314.62 546.48,317.07 542.24,319.52   "
         fill="#FFFFFF" />
    </g>
  </g>
  <text
     id="text71"
     style="font-weight:bold;font-size:24px;font-family:Arial"
     transform="translate(433.1973,389.666)">acceptation?</text>
  <flowRoot
     style="fill:black;stroke:none;stroke-opacity:1;stroke-width:1px;stroke-linejoin:miter;stroke-linecap:butt;fill-opacity:1;font-family:sans-serif;font-style:normal;font-weight:normal;font-size:12.5px;line-height:125%;letter-spacing:0px;word-spacing:0px"
     id="flowRoot4205"
     xml:space="preserve"><flowRegion
       id="flowRegion4207"><rect
         y="356.75977"
         x="-278.65921"
         height="48.044693"
         width="19.217876"
         id="rect4209" /></flowRegion><flowPara
       id="flowPara4211"></flowPara></flowRoot></svg>
