<?xml version="1.0" encoding="utf-8"?>
<!DOCTYPE svg PUBLIC "-//W3C//DTD SVG 1.1//EN" "http://www.w3.org/Graphics/SVG/1.1/DTD/svg11.dtd">
<svg version="1.1" xmlns="http://www.w3.org/2000/svg" xmlns:xlink="http://www.w3.org/1999/xlink" x="0px" y="0px" width="860px"
	 height="400px" viewBox="0 0 860 400" enable-background="new 0 0 860 400" xml:space="preserve">

<style>
.course {
  transform-origin: center center;
}
@supports (-webkit-appearance:none) {
  #course1 {
    animation: rotate 1.4s linear infinite alternate;
  }
  #course2 {
    animation: rotate 2.6s infinite alternate-reverse;
  }
}
@keyframes rotate {
  from { transform: rotate(-1.5deg); }
  to   { transform: rotate( 1.5deg); }
}
</style>

<g id="Courses">
	<text transform="matrix(1 0 0 1 43.9019 264.1523)" fill="#575756" style="font: 24px Arial; font-style: italic;">andere cursussen</text>
	<g id="course1" class="course">
		<g>
      <rect x="87.62" y="279.35" fill="#FFFFFF" width="145.51" height="91.32"/>
			<rect x="115.45" y="288.64" fill="#FFD200" width="117.18" height="7.81"/>
			<rect x="88.12" y="288.64" fill="#1E64C8" width="13.91" height="7.81"/>
			<g>
				<rect x="104.63" y="295.73" fill="#1E64C8" width="8.89" height="0.38"/>
				<rect x="104.63" y="291.39" fill="#1E64C8" width="8.89" height="0.34"/>
				<rect x="102.99" y="297.02" fill="#1E64C8" width="12.22" height="0.61"/>
				<rect x="106.69" y="298.51" fill="#1E64C8" width="4.8" height="0.57"/>
				<polygon fill="#1E64C8" points="109.09,289.5 105.1,291.07 113.07,291.07 				"/>
				<rect x="105.67" y="292.13" fill="#1E64C8" width="0.55" height="3.27"/>
				<rect x="106.93" y="292.13" fill="#1E64C8" width="0.55" height="3.27"/>
				<rect x="108.18" y="292.13" fill="#1E64C8" width="0.55" height="3.27"/>
				<rect x="109.44" y="292.13" fill="#1E64C8" width="0.55" height="3.27"/>
				<rect x="110.69" y="292.13" fill="#1E64C8" width="0.55" height="3.27"/>
				<rect x="111.94" y="292.13" fill="#1E64C8" width="0.55" height="3.27"/>
			</g>
		</g>
		<rect x="92.59" y="311.32" fill="#D9D9D9" width="124.05" height="9.4"/>
		<rect x="92.59" y="336.6" fill="#D9D9D9" width="124.05" height="9.4"/>
    <rect x="87.62" y="279.35" fill="none" width="145.51" height="91.32" stroke="#6F6F6E" stroke-width="2"/>
	</g>
	<g id="course2" class="course">
    <rect x="1.7" y="306.74" fill="#FFFFFF" width="145.51" height="91.32"/>
		<g>
			<rect x="29.53" y="316.02" fill="#FFD200" width="117.18" height="7.81"/>
			<rect x="2.2" y="316.02" fill="#1E64C8" width="13.91" height="7.81"/>
			<g>
				<rect x="18.72" y="323.12" fill="#1E64C8" width="8.89" height="0.38"/>
				<rect x="18.72" y="318.78" fill="#1E64C8" width="8.89" height="0.34"/>
				<rect x="17.07" y="324.41" fill="#1E64C8" width="12.22" height="0.61"/>
				<rect x="20.77" y="325.9" fill="#1E64C8" width="4.8" height="0.57"/>
				<polygon fill="#1E64C8" points="23.18,316.89 19.18,318.46 27.15,318.46 				"/>
				<rect x="19.75" y="319.52" fill="#1E64C8" width="0.55" height="3.27"/>
				<rect x="21.01" y="319.52" fill="#1E64C8" width="0.55" height="3.27"/>
				<rect x="22.26" y="319.52" fill="#1E64C8" width="0.55" height="3.27"/>
				<rect x="23.52" y="319.52" fill="#1E64C8" width="0.55" height="3.27"/>
				<rect x="24.77" y="319.52" fill="#1E64C8" width="0.55" height="3.27"/>
				<rect x="26.03" y="319.52" fill="#1E64C8" width="0.55" height="3.27"/>
			</g>
		</g>
		<rect x="12.95" y="336.6" fill="#D9D9D9" width="124.05" height="9.4"/>
		<rect x="12.95" y="363.63" fill="#D9D9D9" width="20.8" height="8"/>
		<rect x="92.59" y="363.63" fill="#D9D9D9" width="22.21" height="8"/>
		<rect x="12.95" y="381.13" fill="#D9D9D9" width="101.84" height="8"/>
		<rect x="37.12" y="363.63" fill="#1D70B7" width="22.88" height="8"/>
		<rect x="63.37" y="363.63" fill="#1D70B7" width="25.83" height="8"/>
		<rect x="37.12" y="374.34" fill="#1D70B7" stroke="#1D70B7" stroke-miterlimit="10" width="52.08" height="1.56"/>
    <rect x="1.7" y="306.74" fill="none" width="145.51" height="91.32" stroke="#6F6F6E" stroke-width="2"/>
	</g>
</g>
</svg>

