<?xml version="1.0" encoding="utf-8"?>
<!DOCTYPE svg PUBLIC "-//W3C//DTD SVG 1.1//EN" "http://www.w3.org/Graphics/SVG/1.1/DTD/svg11.dtd">
<svg version="1.1" xmlns="http://www.w3.org/2000/svg" xmlns:xlink="http://www.w3.org/1999/xlink" x="0px" y="0px" width="860px"
	 height="400px" viewBox="0 0 860 400" enable-background="new 0 0 860 400" xml:space="preserve">

<style>
#bird {
  animation: pulse 1s linear infinite;
  transform-origin: center;
}
@keyframes pulse {
  0%   { transform: scale(1.05); }
  50%  { transform: scale(0.95); }
  100% { transform: scale(1.00); }
}

@supports (-webkit-appearance:none) {
  #tweet {
    animation: rotate 3s ease-in-out infinite alternate;
    transform-origin: center;
  }
}
@keyframes rotate {
  from { transform: rotate(-3deg); }
  to   { transform: rotate( 3deg); }
}
</style>

<text transform="matrix(1 0 0 1 627 232.4238)" fill="#575756" style="font: 24px Arial; font-style: italic;">tweets</text>
<g id="tweet">
  <rect x="627" y="115.54" fill="#FFFFFF" stroke="#6F6F6E" stroke-width="2" stroke-miterlimit="10" width="227" height="87.26"/>
  <rect x="721" y="133.86" fill="#D9D9D9" width="123" height="8"/>
  <rect x="721" y="155.92" fill="#D9D9D9" width="123" height="8"/>
  <rect x="808" y="177.97" fill="#D9D9D9" width="36" height="8"/>
  <rect x="721" y="177.97" fill="#1D70B7" width="16.75" height="8"/>
  <rect x="740.5" y="177.97" fill="#1D70B7" width="25.83" height="8"/>
  <rect x="768.75" y="177.97" fill="#1D70B7" width="30.58" height="8"/>
  <rect x="721" y="188.93" fill="#1D70B7" stroke="#1D70B7" stroke-miterlimit="10" width="78.33" height="2.11"/>
  <path id="bird" fill="#55ACEE" d="M705.57,139.85c-2.29,1.02-4.75,1.7-7.34,2.01c2.64-1.58,4.66-4.09,5.62-7.07
    c-2.47,1.46-5.2,2.53-8.12,3.1c-2.33-2.48-5.65-4.04-9.33-4.04c-7.06,0-12.78,5.72-12.78,12.78c0,1,0.11,1.98,0.33,2.91
    c-10.62-0.53-20.04-5.62-26.34-13.35c-1.1,1.89-1.73,4.08-1.73,6.42c0,4.43,2.25,8.35,5.69,10.64c-2.1-0.07-4.07-0.64-5.79-1.6
    c0,0.05,0,0.11,0,0.16c0,6.19,4.41,11.36,10.25,12.53c-1.07,0.29-2.2,0.45-3.37,0.45c-0.82,0-1.62-0.08-2.41-0.23
    c1.63,5.08,6.35,8.77,11.94,8.88c-4.38,3.43-9.89,5.47-15.87,5.47c-1.03,0-2.05-0.06-3.05-0.18c5.66,3.63,12.38,5.74,19.59,5.74
    c23.51,0,36.36-19.47,36.36-36.36c0-0.55-0.01-1.1-0.04-1.65C701.69,144.67,703.85,142.42,705.57,139.85"/>
</g>
</svg>

